<svg width="163" height="30" viewBox="0 0 163 30" fill="none" xmlns="http://www.w3.org/2000/svg">
<path d="M14.9037 0.547485L18.1905 10.6631H28.8267L20.2218 16.915L23.5086 27.0306L14.9037 20.7788L6.29879 27.0306L9.58557 16.915L0.98067 10.6631H11.6169L14.9037 0.547485Z" fill="#FFB444"/>
<path d="M48.1852 0.547485L51.472 10.6631H62.1082L53.5033 16.915L56.7901 27.0306L48.1852 20.7788L39.5803 27.0306L42.8671 16.915L34.2622 10.6631H44.8984L48.1852 0.547485Z" fill="#FFB444"/>
<path d="M81.4662 0.547485L84.753 10.6631H95.3892L86.7843 16.915L90.0711 27.0306L81.4662 20.7788L72.8613 27.0306L76.1481 16.915L67.5432 10.6631H78.1794L81.4662 0.547485Z" fill="#FFB444"/>
<path d="M114.747 0.547485L118.034 10.6631H128.67L120.065 16.915L123.352 27.0306L114.747 20.7788L106.142 27.0306L109.429 16.915L100.824 10.6631H111.46L114.747 0.547485Z" fill="#FFB444"/>
<path d="M148.028 0.547485L151.315 10.6631H161.951L153.346 16.915L156.633 27.0306L148.028 20.7788L139.423 27.0306L142.71 16.915L134.105 10.6631H144.741L148.028 0.547485Z" fill="#D9D9D9"/>
<path d="M148.028 0.547485L151.315 10.6631V23.1719L148.028 20.7788L139.423 27.0306L142.71 16.915L134.105 10.6631H144.741L148.028 0.547485Z" fill="#FFB444"/>
</svg>
