<svg xmlns="http://www.w3.org/2000/svg" viewBox="0 0 94 122"><path fill="#fff" d="M8.1 89.9 47.6 110l38-20.1V11.3H8.1z"/><path fill="#f2f3f2" d="M86.4 11.6 7.3 91.3l41 20.3 38.1-19.5z"/><path fill="#dcdedc" d="M5.5 37.5v54.1l1.4.7 39.5 20.1 1.2.6 1.2-.6 38.1-20.1 1.4-.7V8.7H5.5v28.8zm2.6 52.6V11.3h77.6v78.8l-38.1 20.1L8.1 90.1z"/><path fill="#ff492c" d="M46.9 12.6c.4 0 .8 0 1.2.1L46.9 15c-1.8-.1-3.4 1.3-3.5 3.1-.1 1.8 1.3 3.4 3.1 3.5h.4c.8 0 1.6-.3 2.2-.8l1.3 2.2c-1 .7-2.2 1.1-3.5 1.1-3.2.1-5.9-2.3-6-5.5-.1-3.2 2.3-5.9 5.5-6h.5zm4.1 4.9 1.5 2.5-1.5 2.4-1.4-2.4h-2.9l1.5-2.5H51zm-2.4-.9c0-.4.1-.8.3-1.1.2-.3.6-.6.9-.8l.2-.1c.4-.2.5-.3.5-.5s-.3-.4-.5-.4c-.4 0-.7.2-.9.6l-.5-.5c.1-.2.3-.4.5-.6.3-.2.6-.2.9-.2.3 0 .7.1.9.3.2.2.4.5.4.8 0 .5-.3.9-.9 1.1l-.3.2c-.3.2-.5.3-.6.6h1.8v.7l-2.7-.1zm-1.7 12.5 9.5-5.4v-15H37.3v14.9l9.6 5.5zM90.2 64.5H3.6l-3.2 7 3.2 7h86.6l3.1-7z"/><path fill="#252530" d="M17.3 49.49q.99 0 1.74.4t1.16 1.15q.41.74.41 1.7 0 .95-.42 1.67-.43.71-1.2 1.11-.77.4-1.78.4h-2.13q-.07 0-.07.08v3.82q0 .08-.06.13-.05.05-.13.05h-1.75q-.08 0-.13-.05t-.05-.13V49.67q0-.08.05-.13t.13-.05h4.23Zm-.32 4.74q.7 0 1.11-.4.42-.4.42-1.04 0-.67-.42-1.07-.41-.41-1.11-.41h-1.9q-.07 0-.07.08v2.76q0 .08.07.08h1.9Zm11.2 1.12q.08.57.05 1.27-.01.19-.19.19h-4.63q-.09 0-.07.07.05.3.17.6.39.84 1.59.84.96-.01 1.51-.78.07-.09.14-.09.04 0 .1.06l1.08 1.06q.08.08.08.14 0 .03-.06.12-.5.62-1.27.95-.79.34-1.72.34-1.28 0-2.18-.58-.89-.59-1.28-1.64-.32-.75-.32-1.96 0-.83.23-1.46.35-1.06 1.21-1.69.86-.63 2.04-.63 1.5 0 2.41.87.91.87 1.11 2.32Zm-3.5-1.36q-.95 0-1.25.88-.06.2-.1.48 0 .07.08.07H26q.09 0 .06-.07-.08-.43-.08-.42-.13-.45-.47-.7-.33-.24-.83-.24Zm8.7-1.8q.54 0 .86.21.11.06.08.22l-.31 1.71q-.01.18-.21.11-.23-.08-.52-.08-.12 0-.34.03-.53.05-.91.4-.37.35-.37.94v4.09q0 .08-.06.13-.05.05-.12.05h-1.76q-.07 0-.13-.05-.05-.05-.05-.13v-7.35q0-.07.05-.13.06-.05.13-.05h1.76q.07 0 .12.05.06.06.06.13v.57q0 .04.03.06.02.02.04-.02.62-.89 1.65-.89Zm6.39.09q.08 0 .13.05t.05.13v1.42q0 .08-.05.13t-.13.05h-1.45q-.08 0-.08.07v5.69q0 .08-.05.13t-.13.05h-1.75q-.08 0-.13-.05t-.05-.13v-5.69q0-.07-.08-.07h-.88q-.08 0-.13-.05t-.05-.13v-1.42q0-.08.05-.13t.13-.05h.88q.08 0 .08-.08v-.33q0-.93.28-1.45.29-.51.92-.73.64-.22 1.77-.19h.57q.07 0 .12.05.06.06.06.13v1.21q0 .08-.06.13-.05.06-.12.06h-.5q-.52.01-.73.21-.2.21-.2.75v.16q0 .08.08.08h1.45Zm4.35 7.84q-1.26 0-2.16-.66-.9-.66-1.23-1.8-.21-.7-.21-1.53 0-.88.21-1.59.35-1.11 1.25-1.74.9-.63 2.16-.63 1.22 0 2.1.62.86.63 1.22 1.74.25.75.25 1.57 0 .81-.21 1.52-.33 1.17-1.23 1.83-.89.67-2.15.67Zm0-1.81q.49 0 .84-.3t.5-.83q.11-.48.11-1.05 0-.63-.11-1.06-.17-.51-.51-.8-.35-.28-.85-.28t-.84.28q-.34.29-.49.8-.12.35-.12 1.06 0 .68.11 1.05.15.53.5.83.35.3.86.3Zm8.79-6.12q.54 0 .86.21.12.06.08.22l-.31 1.71q-.01.18-.21.11-.23-.08-.52-.08-.12 0-.33.03-.54.05-.92.4-.37.35-.37.94v4.09q0 .08-.06.13-.05.05-.13.05h-1.75q-.07 0-.13-.05-.05-.05-.05-.13v-7.35q0-.07.05-.13.06-.05.13-.05H51q.08 0 .13.05.06.06.06.13v.57q0 .04.02.06.04.02.05-.02.62-.89 1.65-.89Zm10.45-.02q1.17 0 1.83.7.66.71.66 1.99v4.96q0 .08-.05.13t-.12.05h-1.76q-.07 0-.13-.05-.05-.05-.05-.13v-4.5q0-.61-.31-.97-.32-.36-.85-.36-.52 0-.85.36-.33.36-.33.96v4.51q0 .08-.05.13-.06.05-.13.05h-1.74q-.08 0-.13-.05t-.05-.13v-4.5q0-.6-.33-.97-.33-.36-.86-.36-.47 0-.8.28-.32.29-.38.8v4.75q0 .08-.05.13-.06.05-.13.05H55q-.08 0-.13-.05t-.05-.13v-7.35q0-.07.05-.13.05-.05.13-.05h1.75q.07 0 .13.05.05.06.05.13v.59q0 .04.03.06.03.01.06-.04.62-.91 1.91-.91.75 0 1.31.32.56.31.86.9.04.09.11 0 .32-.62.89-.92.56-.3 1.26-.3Zm10.76 3.18q.09.57.06 1.27-.02.19-.2.19h-4.63q-.09 0-.06.07.04.3.16.6.39.84 1.59.84.96-.01 1.52-.78.06-.09.13-.09.05 0 .11.06l1.08 1.06q.07.08.07.14 0 .03-.06.12-.49.62-1.27.95-.78.34-1.71.34-1.29 0-2.18-.58-.9-.59-1.29-1.64-.31-.75-.31-1.96 0-.83.22-1.46.35-1.06 1.21-1.69.86-.63 2.05-.63 1.5 0 2.41.87.91.87 1.1 2.32Zm-3.5-1.36q-.94 0-1.24.88-.06.2-.11.48 0 .07.08.07h2.59q.09 0 .06-.07-.07-.43-.07-.42-.14-.45-.47-.7-.34-.24-.84-.24Zm8.7-1.8q.54 0 .86.21.12.06.09.22l-.31 1.71q-.02.18-.22.11-.22-.08-.52-.08-.12 0-.33.03-.54.05-.92.4-.37.35-.37.94v4.09q0 .08-.05.13-.06.05-.13.05h-1.76q-.07 0-.12-.05-.06-.05-.06-.13v-7.35q0-.07.06-.13.05-.05.12-.05h1.76q.07 0 .13.05.05.06.05.13v.57q0 .04.03.06.03.02.05-.02.61-.89 1.64-.89ZM38.06 34.68q0-.07.05-.13.05-.05.12-.05h1.76q.07 0 .13.05.05.06.05.13v10.14q0 .08-.05.13-.06.05-.13.05h-1.76q-.07 0-.12-.05-.05-.05-.05-.13v-4.14q0-.07-.08-.07h-3.32q-.07 0-.07.07v4.14q0 .08-.05.13-.06.05-.13.05h-1.76q-.07 0-.12-.05-.06-.05-.06-.13V34.68q0-.07.06-.13.05-.05.12-.05h1.76q.07 0 .13.05.05.06.05.13v4.03q0 .08.07.08h3.32q.08 0 .08-.08v-4.03Zm4.84 1.74q-.51 0-.85-.34-.34-.33-.34-.84 0-.53.33-.86.33-.33.86-.33t.86.33q.33.33.33.86 0 .51-.34.84-.34.34-.85.34ZM42 45q-.07 0-.13-.05-.05-.05-.05-.13v-7.36q0-.08.05-.13.06-.05.13-.05h1.76q.07 0 .12.05.06.05.06.13v7.36q0 .08-.06.13-.05.05-.12.05H42Zm8.29-7.53q0-.07.06-.13.05-.05.12-.05h1.76q.07 0 .13.05.05.06.05.13v6.84q0 1.96-1.13 2.8-1.13.85-2.92.85-.53 0-1.17-.08-.15-.02-.15-.19l.06-1.55q0-.2.21-.17.54.09.99.09.96 0 1.48-.41.51-.43.51-1.35 0-.05-.03-.06-.03-.01-.06.03-.57.61-1.66.61-.98 0-1.79-.47-.82-.47-1.17-1.52-.22-.69-.22-1.79 0-1.17.27-1.9.31-.92 1.06-1.47.75-.56 1.75-.56 1.15 0 1.76.69.03.03.06.02.03-.01.03-.05v-.36Zm-.12 4.84q.12-.44.12-1.23 0-.46-.03-.71-.03-.26-.1-.49-.14-.4-.45-.65-.31-.24-.78-.24-.45 0-.76.24-.32.25-.47.65-.21.45-.21 1.22 0 .84.18 1.2.13.41.47.65.34.25.8.25.48 0 .8-.25.31-.24.43-.64Zm7.78-5.14q1.2 0 1.93.74.73.73.73 1.99v4.92q0 .08-.05.13t-.12.05h-1.76q-.07 0-.13-.05-.05-.05-.05-.13v-4.49q0-.59-.34-.97-.33-.37-.89-.37-.55 0-.89.37-.34.38-.34.97v4.49q0 .08-.05.13t-.13.05h-1.75q-.08 0-.13-.05t-.05-.13V34.68q0-.07.05-.13.05-.05.13-.05h1.75q.08 0 .13.05.05.06.05.13V38q0 .04.03.06.03.01.04-.02.62-.87 1.84-.87Z"/><path fill="#fff" d="M33.14 75.48q-.78 0-1.36-.25-.58-.25-.9-.7-.31-.45-.31-1.06v-.25q0-.05.04-.09.03-.03.08-.03h.89q.05 0 .09.03.03.04.03.09v.19q0 .46.41.76.41.31 1.12.31.61 0 .92-.26.31-.26.31-.67 0-.28-.17-.48-.17-.19-.48-.35-.32-.16-.95-.4-.71-.26-1.15-.49-.44-.23-.73-.63-.3-.39-.3-.98 0-.88.64-1.39.64-.51 1.71-.51.75 0 1.33.26.57.26.89.73.32.46.32 1.07v.17q0 .05-.04.09-.03.03-.08.03h-.9q-.05 0-.08-.03-.04-.04-.04-.09v-.11q0-.47-.38-.79-.39-.33-1.07-.33-.55 0-.85.23-.31.23-.31.65 0 .3.16.49t.48.34q.32.16.99.4.71.27 1.14.49.42.22.73.61.3.4.3.99 0 .9-.67 1.43-.66.53-1.81.53Zm6.46-7.09q.63 0 1.11.26.48.26.74.73.27.48.27 1.1 0 .61-.27 1.08-.27.47-.76.72-.5.26-1.15.26h-1.6q-.05 0-.05.05v2.69q0 .05-.03.08-.04.04-.09.04h-.92q-.05 0-.08-.04-.04-.03-.04-.08v-6.77q0-.05.04-.09.03-.03.08-.03h2.75Zm-.17 3.21q.51 0 .82-.3.31-.3.31-.79 0-.5-.31-.81-.31-.31-.82-.31h-1.49q-.05 0-.05.05v2.11q0 .05.05.05h1.49Zm7.24 3.8q-.1 0-.14-.09l-1.32-2.88q-.02-.04-.06-.04h-1.2q-.05 0-.05.05v2.84q0 .05-.04.08-.03.04-.08.04h-.92q-.05 0-.08-.04-.04-.03-.04-.08v-6.76q0-.05.04-.08.03-.04.08-.04h2.75q.61 0 1.08.25.47.26.73.72.26.47.26 1.07 0 .69-.35 1.17-.36.49-.99.68-.02 0-.03.02-.01.02 0 .04l1.41 2.91q.02.04.02.06 0 .08-.11.08h-.96Zm-2.72-6q-.05 0-.05.05v1.99q0 .05.05.05h1.5q.48 0 .77-.29.3-.28.3-.75t-.3-.76q-.29-.29-.77-.29h-1.5Zm5.04 6q-.05 0-.09-.04-.03-.03-.03-.08v-6.76q0-.05.03-.08.04-.04.09-.04h.92q.05 0 .08.04.04.03.04.08v6.76q0 .05-.04.08-.03.04-.08.04h-.92Zm6.57-6.88q0-.05.04-.08.03-.04.08-.04h.92q.05 0 .09.04.03.03.03.08v6.76q0 .05-.03.08-.04.04-.09.04h-.89q-.1 0-.14-.08l-2.88-4.72q-.02-.03-.04-.03-.02.01-.02.05l.02 4.66q0 .05-.04.08-.03.04-.08.04h-.92q-.05 0-.08-.04-.04-.03-.04-.08v-6.76q0-.05.04-.08.03-.04.08-.04h.89q.1 0 .14.08l2.87 4.72q.02.03.04.02.02 0 .02-.04l-.01-4.66Zm4.96 6.96q-.75 0-1.32-.29-.57-.3-.88-.84-.31-.54-.31-1.24v-2.42q0-.71.31-1.25.31-.53.88-.83.57-.29 1.32-.29.74 0 1.31.29.56.29.87.79.31.5.31 1.13v.08q0 .05-.03.08-.04.04-.09.04h-.91q-.05 0-.08-.04-.04-.03-.04-.08v-.05q0-.54-.37-.89-.36-.35-.97-.35t-.98.37q-.37.36-.37.96v2.5q0 .6.39.97.39.36 1.01.36.6 0 .95-.32.34-.31.34-.86v-.62q0-.05-.05-.05h-1.23q-.05 0-.09-.04-.03-.03-.03-.08v-.74q0-.05.03-.08.04-.04.09-.04h2.31q.05 0 .09.04.03.03.03.08v1.28q0 1.15-.67 1.79-.68.64-1.82.64Z"/><path fill="#252530" d="M34.03 93.46q-.03.03-.02.06.02.03.06.03H38q.07 0 .12.05.06.05.06.12v1.41q0 .07-.06.12-.05.05-.12.05h-6.52q-.08 0-.13-.05t-.05-.12v-1.34q0-.13.09-.22.71-.69 1.45-1.51.74-.82.93-1.02.4-.48.82-.92 1.32-1.46 1.32-2.17 0-.51-.36-.84-.36-.32-.94-.32t-.94.32q-.37.33-.37.87v.36q0 .07-.05.12-.05.05-.12.05h-1.71q-.07 0-.12-.05-.06-.05-.06-.12v-.68q.05-.78.5-1.39.45-.6 1.19-.92.75-.32 1.68-.32 1.03 0 1.79.39.76.38 1.17 1.03.42.66.42 1.45 0 .61-.31 1.25-.3.64-.91 1.38-.45.56-.97 1.12-.52.55-1.55 1.59l-.22.22Zm8.86 2q-1.6 0-2.52-.89-.93-.89-.93-2.43v-3.83q0-1.51.93-2.39.92-.89 2.52-.89 1.59 0 2.53.89.93.88.93 2.39v3.83q0 1.54-.93 2.43-.94.89-2.53.89Zm0-1.75q.65 0 1.03-.4.39-.4.39-1.07v-3.99q0-.66-.39-1.06-.38-.4-1.03-.4-.64 0-1.02.4-.39.4-.39 1.06v3.99q0 .67.39 1.07.38.4 1.02.4Zm7.52-.25q-.03.03-.01.06.01.03.06.03h3.93q.07 0 .12.05.05.05.05.12v1.41q0 .07-.05.12-.05.05-.12.05h-6.53q-.07 0-.12-.05-.05-.05-.05-.12v-1.34q0-.13.08-.22.72-.69 1.45-1.51.74-.82.93-1.02.41-.48.83-.92 1.32-1.46 1.32-2.17 0-.51-.36-.84-.37-.32-.95-.32t-.94.32q-.36.33-.36.87v.36q0 .07-.05.12-.05.05-.13.05H47.8q-.07 0-.12-.05-.05-.05-.05-.12v-.68q.04-.78.49-1.39.45-.6 1.2-.92.75-.32 1.67-.32 1.03 0 1.79.39.77.38 1.18 1.03.41.66.41 1.45 0 .61-.3 1.25-.31.64-.92 1.38-.45.56-.97 1.12-.52.55-1.55 1.59l-.22.22Zm11.46-3q.29.66.29 1.53 0 .79-.26 1.45-.35.93-1.17 1.45-.82.53-1.94.53-1.1 0-1.93-.55-.83-.56-1.2-1.5-.2-.56-.23-1.22 0-.17.17-.17h1.72q.17 0 .17.17.06.48.16.71.13.38.43.59.29.21.7.21.81 0 1.12-.71.2-.43.2-1.01 0-.69-.22-1.12-.33-.68-1.11-.68-.16 0-.34.09-.17.1-.42.27-.06.04-.11.04-.09 0-.13-.08l-.86-1.21q-.03-.04-.03-.1 0-.09.06-.14l2.3-2.02q.03-.03.03-.06-.01-.03-.05-.03h-3.41q-.07 0-.13-.05-.05-.05-.05-.12v-1.41q0-.07.05-.12.06-.05.13-.05h6.04q.08 0 .13.05t.05.12v1.6q0 .11-.1.22l-1.9 1.74q-.03.03-.02.05 0 .03.06.03 1.26.25 1.8 1.5Z"/></svg>
