<svg width="48" height="48" viewBox="0 0 48 48" fill="none" xmlns="http://www.w3.org/2000/svg">
<path d="M37 15C37 15 40 18 40 23C40 28 37 31 37 31" stroke="white" stroke-width="3" stroke-linecap="round" stroke-linejoin="round"/>
<path d="M8 27.9999V19.9999C8 19.4695 8.21071 18.9608 8.58579 18.5857C8.96086 18.2106 9.46957 17.9999 10 17.9999H15.394C15.7891 18 16.1753 17.8831 16.504 17.6639L24.89 12.0719C25.1915 11.8708 25.542 11.7553 25.904 11.7379C26.266 11.7205 26.6259 11.8018 26.9453 11.9731C27.2647 12.1444 27.5315 12.3993 27.7173 12.7105C27.9031 13.0216 28.0008 13.3775 28 13.7399V34.2599C28.0001 34.622 27.9018 34.9773 27.7157 35.2879C27.5297 35.5985 27.2628 35.8528 26.9435 36.0236C26.6243 36.1945 26.2646 36.2754 25.903 36.2578C25.5413 36.2403 25.1912 36.1249 24.89 35.9239L16.504 30.3339C16.1751 30.1154 15.7889 29.9992 15.394 29.9999H10C9.46957 29.9999 8.96086 29.7892 8.58579 29.4141C8.21071 29.039 8 28.5303 8 27.9999Z" stroke="white" stroke-width="3"/>
</svg>
